<svg id="Group_68690" data-name="Group 68690" xmlns="http://www.w3.org/2000/svg" xmlns:xlink="http://www.w3.org/1999/xlink" width="94.372" height="94.372" viewBox="0 0 94.372 94.372">
  <defs>
    <clipPath id="clip-path">
      <rect id="Rectangle_8551" data-name="Rectangle 8551" width="94.372" height="94.372" fill="none"/>
    </clipPath>
  </defs>
  <g id="Group_68689" data-name="Group 68689" clip-path="url(#clip-path)">
    <path id="Path_21214" data-name="Path 21214" d="M30.588,42.564a1.841,1.841,0,1,0,.54,1.3,1.859,1.859,0,0,0-.54-1.3" transform="translate(-2.648 -4.055)"/>
    <path id="Path_21215" data-name="Path 21215" d="M88.842,0H15.486A5.541,5.541,0,0,0,9.957,5.529V36.122a5.535,5.535,0,0,0,5.529,5.529H18.8a1.843,1.843,0,1,0,0-3.686H15.486a1.845,1.845,0,0,1-1.843-1.843V5.529a1.851,1.851,0,0,1,1.843-1.843H88.842a1.845,1.845,0,0,1,1.843,1.843V36.122a1.839,1.839,0,0,1-1.843,1.843H76.518a1.847,1.847,0,0,0-1.3.542l-6.072,6.072-6.072-6.072a1.847,1.847,0,0,0-1.3-.542H47.4c-.136-.343-.289-.687-.461-1.021a10.463,10.463,0,0,0-6.325-5.277l-2.665-.813a1.835,1.835,0,0,0-2.268,1.138L31.487,43.567a13.937,13.937,0,0,1-6.451,7.508l-3.93,2.141a5.256,5.256,0,0,0-4.066-1.924H5.267A5.271,5.271,0,0,0,0,56.551V89.1a5.273,5.273,0,0,0,5.267,5.267H17.04A5.261,5.261,0,0,0,21.44,92l1.879.741a23.589,23.589,0,0,0,8.647,1.635H56.831a6.763,6.763,0,0,0,5.855-10.155,6.769,6.769,0,0,0,3.786-9.93,6.763,6.763,0,0,0-.334-12.866,6.766,6.766,0,0,0-5.873-10.128H45.492l2.06-6.135a10.66,10.66,0,0,0,.56-3.506H61.005l6.84,6.84a1.854,1.854,0,0,0,2.6,0l6.831-6.84H88.842a5.529,5.529,0,0,0,5.529-5.529V5.529A5.535,5.535,0,0,0,88.842,0M18.621,89.1a1.577,1.577,0,0,1-1.581,1.581H5.267A1.583,1.583,0,0,1,3.686,89.1V56.551a1.581,1.581,0,0,1,1.581-1.572H17.04a1.576,1.576,0,0,1,1.491,1.057,1.505,1.505,0,0,0,.072.271,2.215,2.215,0,0,1,.018.244ZM60.264,54.979a3.081,3.081,0,1,1,0,6.162H50.271a1.843,1.843,0,0,0,0,3.686h13.95a3.081,3.081,0,0,1,0,6.162H50.271a1.843,1.843,0,1,0,0,3.686h10.39a3.081,3.081,0,1,1,0,6.162H50.271a1.843,1.843,0,1,0,0,3.686h6.56a3.081,3.081,0,0,1,0,6.162H31.966a19.771,19.771,0,0,1-7.3-1.382l-2.358-.922V56.759L26.8,54.31a17.6,17.6,0,0,0,8.159-9.5l3.587-9.921.994.3a6.89,6.89,0,0,1,4.527,8.791l-2.891,8.565a1.847,1.847,0,0,0,1.753,2.43Z"/>
    <path id="Path_21216" data-name="Path 21216" d="M19,62.178a1.505,1.505,0,0,1-.072-.271,1.576,1.576,0,0,0-1.491-1.057H5.661A1.581,1.581,0,0,0,4.08,62.422V94.976a1.583,1.583,0,0,0,1.581,1.581H17.434a1.577,1.577,0,0,0,1.581-1.581V62.422A2.215,2.215,0,0,0,19,62.178M13.4,90.2a1.843,1.843,0,1,1-3.686,0v-.027a1.843,1.843,0,1,1,3.686,0Z" transform="translate(-0.394 -5.871)" fill="#fb954d"/>
    <path id="Path_21217" data-name="Path 21217" d="M93.015,19.025a2.93,2.93,0,0,0-2.376-2l-3.262-.479L85.922,13.6a2.938,2.938,0,0,0-2.647-1.635A2.908,2.908,0,0,0,80.637,13.6l-1.455,2.954-3.262.47a2.943,2.943,0,0,0-1.626,5.024l2.358,2.295-.56,3.253a2.945,2.945,0,0,0,2.9,3.442,2.866,2.866,0,0,0,1.373-.343l2.918-1.536L86.2,30.7a2.94,2.94,0,0,0,4.265-3.108l-.551-3.244,2.358-2.3a2.923,2.923,0,0,0,.741-3.018M87.061,21.98a2.953,2.953,0,0,0-.849,2.611l.37,2.141L84.648,25.72a2.934,2.934,0,0,0-2.738,0l-1.934,1.021.37-2.15A2.953,2.953,0,0,0,79.5,21.98l-1.563-1.518,2.159-.316a2.941,2.941,0,0,0,2.223-1.608l.958-1.961.967,1.961a2.978,2.978,0,0,0,2.223,1.608l2.159.307Z" transform="translate(-7.082 -1.154)"/>
    <path id="Path_21218" data-name="Path 21218" d="M87.545,22.473a2.953,2.953,0,0,0-.849,2.611l.37,2.141-1.934-1.012a2.934,2.934,0,0,0-2.738,0l-1.934,1.021.37-2.15a2.953,2.953,0,0,0-.849-2.611L78.42,20.955l2.159-.316A2.941,2.941,0,0,0,82.8,19.031l.958-1.961.967,1.961a2.978,2.978,0,0,0,2.223,1.608l2.159.307Z" transform="translate(-7.567 -1.647)" fill="#fb954d"/>
    <path id="Path_21219" data-name="Path 21219" d="M67.065,19.025a2.943,2.943,0,0,0-2.376-2l-3.262-.479L59.963,13.6a2.942,2.942,0,0,0-5.277.009l-1.455,2.954-3.262.47a2.948,2.948,0,0,0-1.635,5.024L50.7,24.347l-.56,3.253a2.945,2.945,0,0,0,2.9,3.442,2.867,2.867,0,0,0,1.373-.343l2.918-1.536L60.243,30.7a2.944,2.944,0,0,0,4.274-3.108l-.56-3.244,2.367-2.3a2.923,2.923,0,0,0,.741-3.018M61.111,21.98a2.953,2.953,0,0,0-.849,2.611l.37,2.141L58.7,25.72a2.934,2.934,0,0,0-2.738,0l-1.934,1.021.37-2.15a2.953,2.953,0,0,0-.849-2.611l-1.563-1.518,2.159-.316a2.926,2.926,0,0,0,2.214-1.608l.967-1.961.967,1.961a2.962,2.962,0,0,0,2.223,1.608l2.15.307Z" transform="translate(-4.578 -1.154)"/>
    <path id="Path_21220" data-name="Path 21220" d="M61.6,22.473a2.953,2.953,0,0,0-.849,2.611l.37,2.141-1.934-1.012a2.934,2.934,0,0,0-2.738,0l-1.934,1.021.37-2.15a2.953,2.953,0,0,0-.849-2.611L52.47,20.955l2.159-.316a2.926,2.926,0,0,0,2.214-1.608l.967-1.961.967,1.961A2.962,2.962,0,0,0,61,20.639l2.15.307Z" transform="translate(-5.063 -1.647)" fill="#fb954d"/>
    <path id="Path_21221" data-name="Path 21221" d="M41.115,19.025a2.943,2.943,0,0,0-2.376-2l-3.262-.479L34.013,13.6a2.942,2.942,0,0,0-5.277.009l-1.455,2.954-3.262.47a2.948,2.948,0,0,0-1.635,5.024l2.358,2.295L24.192,27.6a2.945,2.945,0,0,0,2.9,3.442,2.867,2.867,0,0,0,1.373-.343l2.909-1.536L34.293,30.7a2.948,2.948,0,0,0,4.274-3.108l-.56-3.244,2.358-2.3a2.927,2.927,0,0,0,.75-3.018M35.152,21.98a2.972,2.972,0,0,0-.84,2.611l.37,2.141L32.748,25.72a2.934,2.934,0,0,0-2.738,0l-1.934,1.021.37-2.15A2.953,2.953,0,0,0,27.6,21.98l-1.563-1.518,2.159-.316a2.926,2.926,0,0,0,2.214-1.608l.967-1.961.967,1.961a2.947,2.947,0,0,0,2.214,1.608l2.159.307Z" transform="translate(-2.074 -1.154)"/>
    <path id="Path_21222" data-name="Path 21222" d="M35.636,22.473a2.972,2.972,0,0,0-.84,2.611l.37,2.141-1.934-1.012a2.934,2.934,0,0,0-2.738,0l-1.934,1.021.37-2.15a2.953,2.953,0,0,0-.849-2.611L26.52,20.955l2.159-.316a2.926,2.926,0,0,0,2.214-1.608l.967-1.961.967,1.961a2.947,2.947,0,0,0,2.214,1.608l2.159.307Z" transform="translate(-2.559 -1.647)" fill="#fb954d"/>
    <path id="Path_21223" data-name="Path 21223" d="M14,93.1v.027a1.843,1.843,0,1,1-3.686,0V93.1A1.843,1.843,0,1,1,14,93.1" transform="translate(-0.995 -8.805)"/>
  </g>
</svg>
