<svg id="Group_85077" data-name="Group 85077" xmlns="http://www.w3.org/2000/svg" xmlns:xlink="http://www.w3.org/1999/xlink" width="94.279" height="94.388" viewBox="0 0 94.279 94.388">
  <defs>
    <clipPath id="clip-path">
      <rect id="Rectangle_8564" data-name="Rectangle 8564" width="94.279" height="94.388" fill="none"/>
    </clipPath>
  </defs>
  <g id="Group_68701" data-name="Group 68701" clip-path="url(#clip-path)">
    <path id="Path_21272" data-name="Path 21272" d="M94.246,26.528a4.519,4.519,0,0,0-1.707-3.022L63.643.957a4.538,4.538,0,0,0-6.354.776L29.3,37.42,10.72,49.854,5.589,53.287l-3.579,2.4a2.214,2.214,0,0,0-.183.128A4.509,4.509,0,0,0,.769,61.96v.009l4.337,6.464L6.612,70.67l8.746,13.037,1.452,2.164,4.373,6.518a4.544,4.544,0,0,0,3.77,2,4.456,4.456,0,0,0,2.511-.767h.009l8.5-5.688,3.752,2.931a4.556,4.556,0,0,0,6.354-.776l14.744-18.8L82.3,56.9a.426.426,0,0,0,.091-.046l8.7-5.825a4.534,4.534,0,0,0,1.251-6.281l-.009-.009-4.93-7.349,5.907-7.523a4.547,4.547,0,0,0,.931-3.341M8.091,67.912,3.7,61.367l-.63-.94A1.74,1.74,0,0,1,2.8,59.1a1.715,1.715,0,0,1,.6-1.013c.046-.037.091-.073.146-.11l2.483-1.662,5.012-3.351a12.075,12.075,0,0,1,1.132,7.988,12.068,12.068,0,0,1-4.09,6.957M25.93,91.32a1.76,1.76,0,0,1-2.447-.475l-.064-.091-4.948-7.377A12.287,12.287,0,0,1,33.443,86.29Zm17.976-2.94a1.788,1.788,0,0,1-2.483.3l-3.031-2.374L53.418,76.248Zm46.14-42.1a1.768,1.768,0,0,1-.493,2.438l-7.5,5.021A12.232,12.232,0,0,1,85.016,38.8Zm1.086-18.122-5.35,6.82L71.924,14.322a4.535,4.535,0,0,0-6.281-1.242L53.391,21.288a1.382,1.382,0,0,0,1.543,2.292l2.419-1.616a15.035,15.035,0,0,0,18.834,3.679l7.285,10.846a15,15,0,0,0-3.725,18.8l-20.66,13.84h-.009L35.753,84.747a15.058,15.058,0,0,0-18.834-3.679L9.643,70.222A14.918,14.918,0,0,0,14.9,61.485a14.883,14.883,0,0,0-1.543-10.07L48.507,27.88a1.379,1.379,0,0,0-1.534-2.292l-10.28,6.875L59.462,3.44a1.771,1.771,0,0,1,2.474-.31L90.831,25.689a1.728,1.728,0,0,1,.666,1.178,1.753,1.753,0,0,1-.365,1.3m-16.488-4.83a12.3,12.3,0,0,1-14.982-2.912l7.523-5.03a1.762,1.762,0,0,1,2.447.475l2.529,3.78Z" transform="translate(0 0)"/>
    <path id="Path_21273" data-name="Path 21273" d="M98,51.3a1.745,1.745,0,0,1-.749,1.123l-7.5,5.021A12.232,12.232,0,0,1,92.71,42.5l5.03,7.486A1.753,1.753,0,0,1,98,51.3" transform="translate(-7.694 -3.699)" fill="#fb954d"/>
    <path id="Path_21274" data-name="Path 21274" d="M80.334,24.772A12.3,12.3,0,0,1,65.352,21.86l7.523-5.03a1.762,1.762,0,0,1,2.447.475l2.529,3.78Z" transform="translate(-5.689 -1.439)" fill="#fb954d"/>
    <path id="Path_21275" data-name="Path 21275" d="M35.2,94.109l-7.514,5.03a1.76,1.76,0,0,1-2.447-.475l-.064-.091L20.232,91.2A12.287,12.287,0,0,1,35.2,94.109" transform="translate(-1.761 -7.819)" fill="#fb954d"/>
    <path id="Path_21276" data-name="Path 21276" d="M12.445,66.006a12.068,12.068,0,0,1-4.09,6.957L3.963,66.417l-.63-.94a1.74,1.74,0,0,1-.265-1.324,1.715,1.715,0,0,1,.6-1.013c.046-.037.091-.073.146-.11L6.3,61.369l5.012-3.351a12.075,12.075,0,0,1,1.132,7.988" transform="translate(-0.264 -5.051)" fill="#fb954d"/>
    <path id="Path_21277" data-name="Path 21277" d="M73.928,43.834A1.375,1.375,0,0,0,74.7,43.6l6.509-4.358a1.383,1.383,0,1,0-1.538-2.3L73.158,41.3a1.383,1.383,0,0,0,.771,2.532" transform="translate(-6.315 -3.196)"/>
    <path id="Path_21278" data-name="Path 21278" d="M26.406,72.6,19.9,76.96a1.383,1.383,0,1,0,1.538,2.3L27.944,74.9a1.383,1.383,0,0,0-1.538-2.3" transform="translate(-1.679 -6.3)"/>
    <path id="Path_21279" data-name="Path 21279" d="M56.646,64.744a6.251,6.251,0,0,0,1.15-6.9c-1.5-3.323-4.574-3.6-7.705-2.858L46.96,50.31a3.606,3.606,0,0,1,1.461-.183,1.386,1.386,0,0,0,.411-2.739,6.693,6.693,0,0,0-3.451.566l-.612-.9a1.382,1.382,0,0,0-2.292,1.543l.657.986a5.388,5.388,0,0,0-1.013,5.761c1.223,2.848,3.953,3.186,6.71,2.721l4.035,6.016a4.91,4.91,0,0,1-2.648.584,1.386,1.386,0,0,0,.027,2.766,7.527,7.527,0,0,0,4.163-1.05l.685,1.023c1.041,1.552,3.259-.11,2.3-1.543ZM46.111,55.5a1.929,1.929,0,0,1-1.452-1.26,2.531,2.531,0,0,1,.091-2.255L47.106,55.5a7.3,7.3,0,0,1-1,.009m8.92,6.838-3.3-4.921a.471.471,0,0,0,.1-.018,2.786,2.786,0,0,1,3.442,1.57,3.548,3.548,0,0,1-.246,3.369" transform="translate(-3.63 -4.043)"/>
    <path id="Path_21280" data-name="Path 21280" d="M49.089,38.358A18.172,18.172,0,1,0,67.257,56.535,18.178,18.178,0,0,0,49.089,38.358m0,34.062A15.89,15.89,0,1,1,64.974,56.535,15.893,15.893,0,0,1,49.089,72.42" transform="translate(-2.691 -3.339)"/>
    <path id="Path_21281" data-name="Path 21281" d="M49.306,40.858A15.89,15.89,0,1,0,65.192,56.752,15.895,15.895,0,0,0,49.306,40.858m7.368,24.513c.959,1.433-1.26,3.095-2.3,1.543l-.685-1.023a7.527,7.527,0,0,1-4.163,1.05,1.386,1.386,0,0,1-.027-2.766,4.909,4.909,0,0,0,2.648-.584L48.11,57.574c-2.757.466-5.487.128-6.71-2.721a5.388,5.388,0,0,1,1.013-5.761l-.657-.986a1.382,1.382,0,0,1,2.292-1.543l.612.9A6.693,6.693,0,0,1,48.11,46.9a1.386,1.386,0,0,1-.411,2.739,3.606,3.606,0,0,0-1.461.183L49.37,54.5c3.131-.739,6.208-.466,7.705,2.858a6.251,6.251,0,0,1-1.15,6.9Z" transform="translate(-2.909 -3.557)" fill="#fb954d"/>
    <path id="Path_21282" data-name="Path 21282" d="M55.988,63.375l-3.3-4.921a.471.471,0,0,0,.1-.018,2.786,2.786,0,0,1,3.442,1.57,3.548,3.548,0,0,1-.246,3.369" transform="translate(-4.587 -5.076)" fill="#fb954d"/>
    <path id="Path_21283" data-name="Path 21283" d="M47.368,56.024a7.3,7.3,0,0,1-1,.009,1.929,1.929,0,0,1-1.452-1.26,2.531,2.531,0,0,1,.091-2.255Z" transform="translate(-3.891 -4.572)" fill="#fb954d"/>
  </g>
</svg>
